<?xml version="1.0" encoding="UTF-8" standalone="no"?><svg xmlns="http://www.w3.org/2000/svg" xmlns:xlink="http://www.w3.org/1999/xlink" contentScriptType="application/ecmascript" contentStyleType="text/css" height="780px" preserveAspectRatio="none" style="width:841px;height:780px;background:#FFFFFF;" version="1.1" viewBox="0 0 841 780" width="841px" zoomAndPan="magnify"><defs><filter height="300%" id="fzo1vy89tnmx1" width="300%" x="-1" y="-1"><feGaussianBlur result="blurOut" stdDeviation="2.0"/><feColorMatrix in="blurOut" result="blurOut2" type="matrix" values="0 0 0 0 0 0 0 0 0 0 0 0 0 0 0 0 0 0 .4 0"/><feOffset dx="4.0" dy="4.0" in="blurOut2" result="blurOut3"/><feBlend in="SourceGraphic" in2="blurOut3" mode="normal"/></filter></defs><g><line style="stroke:#A80036;stroke-width:1.0;stroke-dasharray:5.0,5.0;" x1="53" x2="53" y1="40.4883" y2="737.457"/><line style="stroke:#A80036;stroke-width:1.0;stroke-dasharray:5.0,5.0;" x1="277" x2="277" y1="40.4883" y2="737.457"/><line style="stroke:#A80036;stroke-width:1.0;stroke-dasharray:5.0,5.0;" x1="550.5" x2="550.5" y1="40.4883" y2="737.457"/><line style="stroke:#A80036;stroke-width:1.0;stroke-dasharray:5.0,5.0;" x1="789" x2="789" y1="40.4883" y2="737.457"/><rect fill="#FEFECE" filter="url(#fzo1vy89tnmx1)" height="30.4883" style="stroke:#A80036;stroke-width:1.5;" width="93" x="5" y="5"/><text fill="#000000" font-family="sans-serif" font-size="14" lengthAdjust="spacing" textLength="79" x="12" y="25.5352">Company A</text><rect fill="#FEFECE" filter="url(#fzo1vy89tnmx1)" height="30.4883" style="stroke:#A80036;stroke-width:1.5;" width="93" x="5" y="736.457"/><text fill="#000000" font-family="sans-serif" font-size="14" lengthAdjust="spacing" textLength="79" x="12" y="756.9922">Company A</text><rect fill="#FEFECE" filter="url(#fzo1vy89tnmx1)" height="30.4883" style="stroke:#A80036;stroke-width:1.5;" width="91" x="230" y="5"/><text fill="#000000" font-family="sans-serif" font-size="14" lengthAdjust="spacing" textLength="77" x="237" y="25.5352">Company B</text><rect fill="#FEFECE" filter="url(#fzo1vy89tnmx1)" height="30.4883" style="stroke:#A80036;stroke-width:1.5;" width="91" x="230" y="736.457"/><text fill="#000000" font-family="sans-serif" font-size="14" lengthAdjust="spacing" textLength="77" x="237" y="756.9922">Company B</text><rect fill="#FEFECE" filter="url(#fzo1vy89tnmx1)" height="30.4883" style="stroke:#A80036;stroke-width:1.5;" width="76" x="510.5" y="5"/><text fill="#000000" font-family="sans-serif" font-size="14" lengthAdjust="spacing" textLength="62" x="517.5" y="25.5352">Operator</text><rect fill="#FEFECE" filter="url(#fzo1vy89tnmx1)" height="30.4883" style="stroke:#A80036;stroke-width:1.5;" width="76" x="510.5" y="736.457"/><text fill="#000000" font-family="sans-serif" font-size="14" lengthAdjust="spacing" textLength="62" x="517.5" y="756.9922">Operator</text><rect fill="#FEFECE" filter="url(#fzo1vy89tnmx1)" height="30.4883" style="stroke:#A80036;stroke-width:1.5;" width="75" x="750" y="5"/><text fill="#000000" font-family="sans-serif" font-size="14" lengthAdjust="spacing" textLength="61" x="757" y="25.5352">EventBus</text><rect fill="#FEFECE" filter="url(#fzo1vy89tnmx1)" height="30.4883" style="stroke:#A80036;stroke-width:1.5;" width="75" x="750" y="736.457"/><text fill="#000000" font-family="sans-serif" font-size="14" lengthAdjust="spacing" textLength="61" x="757" y="756.9922">EventBus</text><rect fill="#EEEEEE" filter="url(#fzo1vy89tnmx1)" height="3" style="stroke:#EEEEEE;stroke-width:1.0;" width="834" x="0" y="71.1436"/><line style="stroke:#000000;stroke-width:1.0;" x1="0" x2="834" y1="71.1436" y2="71.1436"/><line style="stroke:#000000;stroke-width:1.0;" x1="0" x2="834" y1="74.1436" y2="74.1436"/><rect fill="#EEEEEE" filter="url(#fzo1vy89tnmx1)" height="23.3105" style="stroke:#000000;stroke-width:2.0;" width="189" x="322.5" y="60.4883"/><text fill="#000000" font-family="sans-serif" font-size="13" font-weight="bold" lengthAdjust="spacing" textLength="171" x="328.5" y="77.0566">Announcing new Product</text><polygon fill="#A80036" points="538.5,111.1094,548.5,115.1094,538.5,119.1094,542.5,115.1094" style="stroke:#A80036;stroke-width:1.0;"/><line style="stroke:#A80036;stroke-width:1.0;" x1="53.5" x2="544.5" y1="115.1094" y2="115.1094"/><text fill="#000000" font-family="sans-serif" font-size="13" font-weight="bold" lengthAdjust="spacing" textLength="28" x="60.5" y="110.3672">[01]</text><text fill="#000000" font-family="sans-serif" font-size="13" lengthAdjust="spacing" textLength="135" x="92.5" y="110.3672">anounce new product</text><polygon fill="#A80036" points="777.5,140.4199,787.5,144.4199,777.5,148.4199,781.5,144.4199" style="stroke:#A80036;stroke-width:1.0;"/><line style="stroke:#A80036;stroke-width:1.0;" x1="550.5" x2="783.5" y1="144.4199" y2="144.4199"/><text fill="#000000" font-family="sans-serif" font-size="13" font-weight="bold" lengthAdjust="spacing" textLength="28" x="557.5" y="139.6777">[02]</text><text fill="#000000" font-family="sans-serif" font-size="13" lengthAdjust="spacing" textLength="160" x="589.5" y="139.6777">issue public product data</text><polygon fill="#A80036" points="288.5,169.7305,278.5,173.7305,288.5,177.7305,284.5,173.7305" style="stroke:#A80036;stroke-width:1.0;"/><line style="stroke:#A80036;stroke-width:1.0;" x1="282.5" x2="788.5" y1="173.7305" y2="173.7305"/><text fill="#000000" font-family="sans-serif" font-size="13" font-weight="bold" lengthAdjust="spacing" textLength="28" x="294.5" y="168.9883">[03]</text><text fill="#000000" font-family="sans-serif" font-size="13" lengthAdjust="spacing" textLength="119" x="326.5" y="168.9883">notify new product</text><rect fill="#EEEEEE" filter="url(#fzo1vy89tnmx1)" height="3" style="stroke:#EEEEEE;stroke-width:1.0;" width="834" x="0" y="227.3857"/><line style="stroke:#000000;stroke-width:1.0;" x1="0" x2="834" y1="227.3857" y2="227.3857"/><line style="stroke:#000000;stroke-width:1.0;" x1="0" x2="834" y1="230.3857" y2="230.3857"/><rect fill="#EEEEEE" filter="url(#fzo1vy89tnmx1)" height="23.3105" style="stroke:#000000;stroke-width:2.0;" width="201" x="316.5" y="216.7305"/><text fill="#000000" font-family="sans-serif" font-size="13" font-weight="bold" lengthAdjust="spacing" textLength="183" x="322.5" y="233.2988">Requesting Product Details</text><polygon fill="#A80036" points="538.5,267.3516,548.5,271.3516,538.5,275.3516,542.5,271.3516" style="stroke:#A80036;stroke-width:1.0;"/><line style="stroke:#A80036;stroke-width:1.0;" x1="277.5" x2="544.5" y1="271.3516" y2="271.3516"/><text fill="#000000" font-family="sans-serif" font-size="13" font-weight="bold" lengthAdjust="spacing" textLength="28" x="284.5" y="266.6094">[04]</text><text fill="#000000" font-family="sans-serif" font-size="13" lengthAdjust="spacing" textLength="178" x="316.5" y="266.6094">request product information</text><polygon fill="#A80036" points="777.5,296.6621,787.5,300.6621,777.5,304.6621,781.5,300.6621" style="stroke:#A80036;stroke-width:1.0;"/><line style="stroke:#A80036;stroke-width:1.0;" x1="550.5" x2="783.5" y1="300.6621" y2="300.6621"/><text fill="#000000" font-family="sans-serif" font-size="13" font-weight="bold" lengthAdjust="spacing" textLength="28" x="557.5" y="295.9199">[05]</text><text fill="#000000" font-family="sans-serif" font-size="13" lengthAdjust="spacing" textLength="183" x="589.5" y="295.9199">issue product details request</text><polygon fill="#A80036" points="64.5,325.9727,54.5,329.9727,64.5,333.9727,60.5,329.9727" style="stroke:#A80036;stroke-width:1.0;"/><line style="stroke:#A80036;stroke-width:1.0;" x1="58.5" x2="788.5" y1="329.9727" y2="329.9727"/><text fill="#000000" font-family="sans-serif" font-size="13" font-weight="bold" lengthAdjust="spacing" textLength="28" x="70.5" y="325.2305">[06]</text><text fill="#000000" font-family="sans-serif" font-size="13" lengthAdjust="spacing" textLength="187" x="102.5" y="325.2305">notify product details request</text><rect fill="#EEEEEE" filter="url(#fzo1vy89tnmx1)" height="3" style="stroke:#EEEEEE;stroke-width:1.0;" width="834" x="0" y="383.6279"/><line style="stroke:#000000;stroke-width:1.0;" x1="0" x2="834" y1="383.6279" y2="383.6279"/><line style="stroke:#000000;stroke-width:1.0;" x1="0" x2="834" y1="386.6279" y2="386.6279"/><rect fill="#EEEEEE" filter="url(#fzo1vy89tnmx1)" height="23.3105" style="stroke:#000000;stroke-width:2.0;" width="189" x="322.5" y="372.9727"/><text fill="#000000" font-family="sans-serif" font-size="13" font-weight="bold" lengthAdjust="spacing" textLength="171" x="328.5" y="389.541">Providing Product Details</text><line style="stroke:#A80036;stroke-width:1.0;" x1="53.5" x2="95.5" y1="427.5938" y2="427.5938"/><line style="stroke:#A80036;stroke-width:1.0;" x1="95.5" x2="95.5" y1="427.5938" y2="440.5938"/><line style="stroke:#A80036;stroke-width:1.0;" x1="54.5" x2="95.5" y1="440.5938" y2="440.5938"/><polygon fill="#A80036" points="64.5,436.5938,54.5,440.5938,64.5,444.5938,60.5,440.5938" style="stroke:#A80036;stroke-width:1.0;"/><text fill="#000000" font-family="sans-serif" font-size="13" font-weight="bold" lengthAdjust="spacing" textLength="28" x="60.5" y="422.8516">[07]</text><text fill="#000000" font-family="sans-serif" font-size="13" lengthAdjust="spacing" textLength="178" x="92.5" y="422.8516">encrypt product information</text><polygon fill="#A80036" points="538.5,465.9043,548.5,469.9043,538.5,473.9043,542.5,469.9043" style="stroke:#A80036;stroke-width:1.0;"/><line style="stroke:#A80036;stroke-width:1.0;" x1="53.5" x2="544.5" y1="469.9043" y2="469.9043"/><text fill="#000000" font-family="sans-serif" font-size="13" font-weight="bold" lengthAdjust="spacing" textLength="28" x="60.5" y="465.1621">[08]</text><text fill="#000000" font-family="sans-serif" font-size="13" lengthAdjust="spacing" textLength="227" x="92.5" y="465.1621">send encrypted product information</text><rect fill="#EEEEEE" filter="url(#fzo1vy89tnmx1)" height="3" style="stroke:#EEEEEE;stroke-width:1.0;" width="834" x="0" y="523.5596"/><line style="stroke:#000000;stroke-width:1.0;" x1="0" x2="834" y1="523.5596" y2="523.5596"/><line style="stroke:#000000;stroke-width:1.0;" x1="0" x2="834" y1="526.5596" y2="526.5596"/><rect fill="#EEEEEE" filter="url(#fzo1vy89tnmx1)" height="23.3105" style="stroke:#000000;stroke-width:2.0;" width="174" x="330" y="512.9043"/><text fill="#000000" font-family="sans-serif" font-size="13" font-weight="bold" lengthAdjust="spacing" textLength="156" x="336" y="529.4727">Getting Product Details</text><polygon fill="#A80036" points="538.5,563.5254,548.5,567.5254,538.5,571.5254,542.5,567.5254" style="stroke:#A80036;stroke-width:1.0;"/><line style="stroke:#A80036;stroke-width:1.0;" x1="277.5" x2="544.5" y1="567.5254" y2="567.5254"/><text fill="#000000" font-family="sans-serif" font-size="13" font-weight="bold" lengthAdjust="spacing" textLength="28" x="284.5" y="562.7832">[09]</text><text fill="#000000" font-family="sans-serif" font-size="13" lengthAdjust="spacing" textLength="217" x="316.5" y="562.7832">get encrypted product information</text><line style="stroke:#A80036;stroke-width:1.0;" x1="277.5" x2="319.5" y1="596.8359" y2="596.8359"/><line style="stroke:#A80036;stroke-width:1.0;" x1="319.5" x2="319.5" y1="596.8359" y2="609.8359"/><line style="stroke:#A80036;stroke-width:1.0;" x1="278.5" x2="319.5" y1="609.8359" y2="609.8359"/><polygon fill="#A80036" points="288.5,605.8359,278.5,609.8359,288.5,613.8359,284.5,609.8359" style="stroke:#A80036;stroke-width:1.0;"/><text fill="#000000" font-family="sans-serif" font-size="13" font-weight="bold" lengthAdjust="spacing" textLength="28" x="284.5" y="592.0938">[10]</text><text fill="#000000" font-family="sans-serif" font-size="13" lengthAdjust="spacing" textLength="178" x="316.5" y="592.0938">decrypt product information</text><line style="stroke:#A80036;stroke-width:1.0;" x1="277.5" x2="319.5" y1="639.1465" y2="639.1465"/><line style="stroke:#A80036;stroke-width:1.0;" x1="319.5" x2="319.5" y1="639.1465" y2="652.1465"/><line style="stroke:#A80036;stroke-width:1.0;" x1="278.5" x2="319.5" y1="652.1465" y2="652.1465"/><polygon fill="#A80036" points="288.5,648.1465,278.5,652.1465,288.5,656.1465,284.5,652.1465" style="stroke:#A80036;stroke-width:1.0;"/><text fill="#000000" font-family="sans-serif" font-size="13" font-weight="bold" lengthAdjust="spacing" textLength="28" x="284.5" y="634.4043">[11]</text><text fill="#000000" font-family="sans-serif" font-size="13" lengthAdjust="spacing" textLength="180" x="316.5" y="634.4043">validate product information</text><line style="stroke:#A80036;stroke-width:1.0;" x1="277.5" x2="319.5" y1="681.457" y2="681.457"/><line style="stroke:#A80036;stroke-width:1.0;" x1="319.5" x2="319.5" y1="681.457" y2="694.457"/><line style="stroke:#A80036;stroke-width:1.0;" x1="278.5" x2="319.5" y1="694.457" y2="694.457"/><polygon fill="#A80036" points="288.5,690.457,278.5,694.457,288.5,698.457,284.5,694.457" style="stroke:#A80036;stroke-width:1.0;"/><text fill="#000000" font-family="sans-serif" font-size="13" font-weight="bold" lengthAdjust="spacing" textLength="28" x="284.5" y="676.7148">[12]</text><text fill="#000000" font-family="sans-serif" font-size="13" lengthAdjust="spacing" textLength="187" x="316.5" y="676.7148">proccess product information</text><!--MD5=[a07c633b57de99aeb305e464c47b0268]
@startuml
autonumber "<b>[00]"

participant "Company A" as COMPA
participant "Company B" as COMPB
participant "Operator" as OP
participant "EventBus" as BC


== Announcing new Product ==

COMPA -> OP: anounce new product
OP -> BC: issue public product data
BC -> COMPB: notify new product
|||

== Requesting Product Details ==

COMPB -> OP: request product information
OP -> BC: issue product details request
BC -> COMPA: notify product details request
|||

== Providing Product Details ==

COMPA -> COMPA: encrypt product information
COMPA -> OP: send encrypted product information
|||

== Getting Product Details ==

COMPB -> OP: get encrypted product information
COMPB -> COMPB: decrypt product information
COMPB -> COMPB: validate product information
COMPB -> COMPB: proccess product information
|||

@enduml

PlantUML version 1.2022.0(Tue Jan 11 17:16:42 CET 2022)
(GPL source distribution)
Java Runtime: OpenJDK Runtime Environment
JVM: OpenJDK 64-Bit Server VM
Default Encoding: UTF-8
Language: en
Country: DE
--></g></svg>